<svg width="256" height="256" viewBox="0 0 256 256" fill="none" xmlns="http://www.w3.org/2000/svg">
<rect x="27" y="27" width="202" height="202" rx="10" fill="#051D17"/>
<rect x="27" y="27" width="202" height="202" rx="10" fill="url(#paint0_linear_874_122218)"/>
<path d="M167.022 194.728C167.641 196.786 167.951 197.815 168.748 198.407C169.545 199 170.619 199 172.768 199H179.85C183.578 199 185.442 199 186.341 197.779C187.24 196.557 186.687 194.778 185.58 191.218L145.46 62.2181C144.827 60.1849 144.511 59.1683 143.718 58.5841C142.924 58 141.86 58 139.73 58H115.664C113.54 58 112.478 58 111.686 58.5818C110.893 59.1636 110.575 60.1768 109.939 62.2031L69.4474 191.203C68.3283 194.768 67.7687 196.551 68.6678 197.775C69.5669 199 71.4352 199 75.172 199H82.2318C84.3809 199 85.4554 199 86.2524 198.407C87.0493 197.815 87.3587 196.786 87.9776 194.728L96.3714 166.814C96.9902 164.756 97.2997 163.727 98.0966 163.134C98.8936 162.541 99.9681 162.541 102.117 162.541H152.883C155.032 162.541 156.106 162.541 156.903 163.134C157.7 163.727 158.01 164.756 158.629 166.814L167.022 194.728ZM110.588 146.427C106.897 146.427 105.052 146.427 104.152 145.219C103.252 144.01 103.782 142.242 104.841 138.706L121.752 82.2304C124.095 74.4059 125.267 70.4937 127.5 70.4937C129.733 70.4937 130.905 74.4059 133.248 82.2304L150.159 138.706C151.218 142.242 151.748 144.01 150.848 145.219C149.948 146.427 148.103 146.427 144.412 146.427H110.588Z" fill="white"/>
<defs>
<linearGradient id="paint0_linear_874_122218" x1="128" y1="27" x2="128" y2="229" gradientUnits="userSpaceOnUse">
<stop stop-color="#EDCB52" stop-opacity="0.23"/>
<stop offset="1" stop-color="#051D17"/>
</linearGradient>
</defs>
</svg>
